<?xml version="1.0" standalone="no"?><!DOCTYPE svg PUBLIC "-//W3C//DTD SVG 1.1//EN" "http://www.w3.org/Graphics/SVG/1.1/DTD/svg11.dtd"><svg class="icon" style="" viewBox="0 0 1024 1024" version="1.1" xmlns="http://www.w3.org/2000/svg" p-id="27184" xmlns:xlink="http://www.w3.org/1999/xlink" width="48" height="80"><defs><style type="text/css"><![CDATA[

]]></style></defs><path d="M717.4 173.2c-11.4-11.8-32-11.4-43.8 0l-77 77.4c-1.2-1.6-3.2-2.4-5.8-2.4L314.2 248.2c-17.2 0-30.8 14-30.8 31.2l0 302.4c0 17.2 14 31.2 30.8 31.2L680 613c17.2 0 31.2-14 31.2-31.2L711.2 255.4c0-0.8 0-1.6-0.4-2.4l21.4-21.8c11.8-12.2 11.8-32 0-43.8L717.4 173.2zM695.2 581.2c0 8.6-7 15.6-15.6 15.6L313.8 596.8c-8.6 0-15.2-7-15.2-15.6L298.6 278.8c0-8.6 7-15.6 15.2-15.6l269.2 0L538.4 308l-85.2 0c-4 0-7.8 3.2-7.8 7.8l0 230.6c0 4 3.2 7.8 7.8 7.8L642 554.2c4 0 7.8-3.2 7.8-7.8L649.8 316.2c0-0.8 0-1.6-0.4-2l45-45.4 0 312.6L695.2 581.4zM462.2 403.8l-0.4 2.4 0-82.8 61.8 0-37.2 37.6C476 371.4 465.4 390.2 462.2 403.8zM477.6 448.8c2 0 4.6-0.4 7-0.8l17.6-4c14-3.2 32.4-14 42.6-23.8l90.6-91 0 209.8-173.4 0 0-96.6C465.4 446.4 471.2 448.8 477.6 448.8zM721 220.6l-187.2 188c-8.2 8.2-24.2 17.2-35.2 19.6l-17.6 4c-2.4 0.8-5.8 1.2-7.4-0.8-1.2-1.2-1.2-3.6-0.4-7l4-17.6c2.4-11 11.8-27.4 19.6-35.2l50.4-50.8c0 0 0 0 0.4-0.4l136.8-137.2c2.8-2.8 6.6-4.6 11-4.6 4 0 8.2 1.6 10.6 4.6l14.8 14.8C726.8 204.6 726.8 214.6 721 220.6zM406.4 308.4l-61.4 0c-4 0-7.8 3.2-7.8 7.8l0 56.6c0 4 3.2 7.8 7.8 7.8l61.4 0c4 0 7.8-3.2 7.8-7.8l0-56.6C414.2 311.6 411 308.4 406.4 308.4zM398.6 364.8l-45.8 0 0-41 45.8 0L398.6 364.8zM406.4 395.2l-61.4 0c-4 0-7.8 3.2-7.8 7.8l0 56.6c0 4 3.2 7.8 7.8 7.8l61.4 0c4 0 7.8-3.2 7.8-7.8l0-56.6C414.2 398.4 411 395.2 406.4 395.2zM398.6 451.8l-45.8 0 0-41 45.8 0L398.6 451.8zM406.4 482l-61.4 0c-4 0-7.8 3.2-7.8 7.8l0 56.6c0 4 3.2 7.8 7.8 7.8l61.4 0c4 0 7.8-3.2 7.8-7.8l0-56.6C414.2 485.8 411 482 406.4 482zM398.6 538.6l-45.8 0 0-41 45.8 0L398.6 538.6zM655 865.6 358 865.6 336 994.6c-1.2 6.2 0.8 12.2 4.6 17.2 4 5 9.8 7.4 16 7.4l300 0 0.4 0c11.4 0 21.4-9.4 21.4-20.8 0-2.4-0.4-4.6-1.2-7L655 865.6zM974.2 17.4 50 17.4c-22.2 0-40.2 18.4-40.2 41.4l0 723.6c0 23 18 41.4 40.2 41.4l923.8 0c22.2 0 40.2-18.4 40.2-41.4L1014 58.8C1014.4 35.8 996.4 17.4 974.2 17.4zM953.4 697.2 70.8 697.2 70.8 112c0-20 16.4-36.4 36.4-36.4l809.6 0c20 0 36.8 16.4 36.8 36.4l0 585L953.4 697z" p-id="27185" style="fill:white;stroke:#ff4444;stroke-width:20"></path></svg>