<?xml version="1.0" standalone="no"?><!DOCTYPE svg PUBLIC "-//W3C//DTD SVG 1.1//EN" "http://www.w3.org/Graphics/SVG/1.1/DTD/svg11.dtd"><svg class="icon" style="" viewBox="0 0 1024 1024" version="1.1" xmlns="http://www.w3.org/2000/svg" p-id="10800" xmlns:xlink="http://www.w3.org/1999/xlink" width="40" height="40"><defs><style type="text/css"><![CDATA[

]]></style></defs><path d="M873.554546 511.633656 873.554546 203.432249c0-66.523089-54.120618-120.635521-120.643708-120.635521L302.130132 82.796728c-66.523089 0-120.643708 54.112432-120.643708 120.635521L181.486424 511.632633c-42.717917 17.304108-70.790276 58.514695-70.790276 105.380072l0 117.384477c0 24.686239 20.088524 44.782949 44.782949 44.782949l102.30606 0c-9.103332 21.841447-20.557198 42.806945-34.462906 62.49331l-32.219819 45.596478c-5.913687 8.336876 0.320295 20.503986 10.615779 20.503986l651.601478 0c10.205433 0 16.582677-12.093433 10.615779-20.503986l-32.211633-45.596478c-13.907755-19.687388-25.363667-40.651862-34.469046-62.49331l102.304014 0c24.694425 0 44.782949-20.097734 44.782949-44.782949l0-117.383454C944.343799 570.148351 916.27144 528.936741 873.554546 511.633656zM847.547219 203.432249l0 304.340473L580.227917 507.772722 580.227917 399.234727c94.324272-43.561122 94.53405-182.215018 0-225.709625l0-64.72207 172.682921 0C805.092291 108.803032 847.547219 151.249773 847.547219 203.432249zM525.615089 161.39176c-8.499581 0-16.795525 0.829901-24.795732 2.472308l0-55.009871 53.401234 0 0 55.556317C544.884968 162.378228 535.175839 161.39176 525.615089 161.39176zM494.275313 193.290261c21.315468-8.132214 46.90017-7.554046 67.928089 1.252527l13.669324 5.714142c66.448388 36.82879 66.10865 135.846968-0.369414 172.430164l-13.299911 5.559623c-52.228525 21.827121-112.985284-9.81146-129.243573-62.794162C417.667541 265.617543 445.016423 210.712049 494.275313 193.290261 503.639588 189.717899 454.875978 207.225645 494.275313 193.290261zM500.819356 408.928506c17.434068 3.573385 36.035728 3.328815 53.401234-0.50756l0 94.866624-53.401234 0L500.819356 408.928506 500.819356 408.928506zM302.130132 108.803032l172.682921 0 0 64.75584c-94.210685 43.588751-94.414323 182.15362 0 225.679949l0 108.533902L207.492728 507.772722 207.492728 203.432249C207.492728 151.249773 249.948679 108.803032 302.130132 108.803032zM196.871833 533.779026l661.297304 0c18.105357 5.985318 33.189913 17.314341 43.721781 31.999808L153.150052 565.778834C163.68192 551.09439 178.766476 539.764344 196.871833 533.779026zM308.394812 667.943678l438.250322 0c1.737574 47.606251 13.233396 93.685729 33.396621 136.246057L275.001261 804.189735C295.16244 761.628384 306.657238 715.549929 308.394812 667.943678zM828.211848 881.768625 226.828099 881.768625l17.735943-25.092491c6.070252-8.592702 11.577686-17.472953 16.811898-26.480094l532.295232 0c5.235235 9.007141 10.741645 17.888416 16.813944 26.480094L828.211848 881.768625zM918.337495 734.398206c0 10.361999-8.423857 18.776645-18.776645 18.776645L787.609105 753.174851c-8.732895-27.418466-13.540388-56.04648-14.697747-85.232197l110.395296 0 0-26.006304L759.411903 641.936351l-463.782835 0L171.734316 641.936351l0 26.006304 110.395296 0c-1.156336 29.185716-5.962805 57.81373-14.696724 85.232197L155.48012 753.174851c-10.353812 0-18.776645-8.414647-18.776645-18.776645L136.703475 617.013729c0-8.751315 1.428535-17.185404 3.818979-25.227568l773.996063 0c2.390443 8.042163 3.818979 16.476253 3.818979 25.227568L918.337495 734.398206 918.337495 734.398206zM802.011116 173.819814 689.316451 173.819814l0 88.12713 112.694665 0L802.011116 173.819814zM776.004813 235.94064l-60.682058 0 0-36.114522 60.682058 0L776.004813 235.94064zM312.941362 435.323667c41.837874 0 41.837874-65.015759 0-65.015759C271.140327 370.307907 271.044136 435.323667 312.941362 435.323667zM312.941362 387.645784c19.526729 0 19.47761 30.341029 0 30.341029C293.486264 417.98579 293.291836 387.645784 312.941362 387.645784z" p-id="10801" style="fill:white;stroke:#42c231;stroke-width:6"></path></svg>