<?xml version="1.0" standalone="no"?><!DOCTYPE svg PUBLIC "-//W3C//DTD SVG 1.1//EN" "http://www.w3.org/Graphics/SVG/1.1/DTD/svg11.dtd"><svg class="icon" style="" viewBox="0 0 1024 1024" version="1.1" xmlns="http://www.w3.org/2000/svg" p-id="31583" xmlns:xlink="http://www.w3.org/1999/xlink" width="105" height="105"><defs></defs><path d="M678.756443 558.334281c4.361331 0 8.650007 0.332575 12.966313 0.804319-11.615549-54.080709-69.416999-94.254687-135.425366-94.254687-73.77833 0-134.211724 50.26787-134.211724 114.139573 0 36.855396 20.097734 67.11763 53.703109 90.62809l-13.413498 40.362266 46.926776-23.51353c16.778128 3.299139 30.241768 6.711865 46.995337 6.711865 4.221138 0 8.393157-0.191358 12.514012-0.49835-2.605338-8.983605-4.146437-18.367323-4.146437-28.15934C564.690548 605.924159 615.031073 558.334281 678.756443 558.334281L678.756443 558.334281zM606.614379 521.954723c10.143011 0 16.803711 6.659677 16.803711 16.754592 0 10.051937-6.6607 16.783245-16.803711 16.783245-10.026354 0-20.122293-6.731308-20.122293-16.783245C586.492086 528.591887 596.565513 521.954723 606.614379 521.954723L606.614379 521.954723zM512.69329 555.49256c-10.076496 0-20.219507-6.731308-20.219507-16.783245 0-10.093892 10.144034-16.754592 20.219507-16.754592 10.070356 0 16.754592 6.637164 16.754592 16.754592C529.447882 548.761252 522.762623 555.49256 512.69329 555.49256L512.69329 555.49256zM512.69329 555.49256M801.287127 662.946874c0-53.656037-53.705156-97.383958-114.021893-97.383958-63.87068 0-114.139573 43.751457-114.139573 97.383958 0 53.7993 50.291406 97.384981 114.139573 97.384981 13.366426 0 26.852578-3.344165 40.267099-6.708795l36.807301 20.190855-10.095939-33.558303C781.187347 720.015637 801.287127 693.213201 801.287127 662.946874L801.287127 662.946874zM650.246109 646.141116c-6.6607 0-13.414521-6.633071-13.414521-13.413498 0-6.680143 6.754844-13.411451 13.414521-13.411451 10.190083 0 16.804734 6.731308 16.804734 13.411451C667.050844 639.508046 660.437216 646.141116 650.246109 646.141116L650.246109 646.141116zM724.072535 646.141116c-6.613628 0-13.34289-6.633071-13.34289-13.413498 0-6.680143 6.706749-13.411451 13.34289-13.411451 10.094916 0 16.804734 6.731308 16.804734 13.411451C740.877269 639.508046 734.16745 646.141116 724.072535 646.141116L724.072535 646.141116zM724.072535 646.141116M429.104523 289.868877l93.470835 0 0 17.913998-93.470835 0L429.104523 289.868877 429.104523 289.868877zM429.104523 289.868877M593.752444 732.130559l-6.684236 0.310062-28.542056 0.11461 0.204661-0.424672L353.740068 732.130559c-21.296025 0-38.557154-20.88261-38.557154-46.636157L315.182914 312.416406c0-25.755594 17.261129-46.632063 38.557154-46.632063l244.196675 0c21.296025 0 38.560224 20.87647 38.560224 46.632063l0 198.990077c1.418302 0.924045 2.838651 1.845021 4.250814 2.777253 0.425695 0.224104 0.807389 0.485047 1.162476 0.771573 4.225231 2.808976 8.438183 5.63944 12.673647 8.44023L654.583904 299.234175c0-27.576055-19.206434-49.929156-42.896996-49.929156L339.990926 249.305019c-23.690562 0-42.898019 22.358217-42.898019 49.932226L297.092907 698.67561c0 27.572986 19.207457 49.928133 42.898019 49.928133l276.707113 0M611.685885 249.305019" p-id="31584" style="fill:white;stroke:#e8b614;stroke-width:20"></path></svg>