<?xml version="1.0" standalone="no"?><!DOCTYPE svg PUBLIC "-//W3C//DTD SVG 1.1//EN" "http://www.w3.org/Graphics/SVG/1.1/DTD/svg11.dtd"><svg class="icon" style="" viewBox="0 0 1293 1024" version="1.1" xmlns="http://www.w3.org/2000/svg" p-id="1489" xmlns:xlink="http://www.w3.org/1999/xlink" width="40" height="40"><defs><style type="text/css"><![CDATA[

]]></style></defs><path d="M1173.57002 1024C1173.57002 1024 112.707776 1024 112.707776 1024 60.559402 1024-0.02438 972.339222-0.02438 908.659207-0.02438 908.659207-0.02438 260.303033-0.02438 260.303033-0.02438 184.603781 80.745869 146.15685 121.118804 146.15685 121.118804 146.15685 306.868435 146.15685 306.868435 146.15685 306.868435 146.15685 392.368363 0 392.368363 0 392.368363 0 898.273416 0 898.273416 0 898.273416 0 985.284891 146.15685 985.284891 146.15685 985.284891 146.15685 1171.034522 146.15685 1171.034522 146.15685 1251.804771 146.15685 1292.177706 223.050712 1292.177706 261.497643 1292.177706 261.497643 1292.177706 909.853816 1292.177706 909.853816 1292.177706 969.925623 1226.571687 1024 1173.57002 1024ZM1219.038332 257.694396C1218.648255 254.646922 1207.140993 219.247464 1178.665397 219.247464 1178.665397 219.247464 939.597162 219.247464 939.597162 219.247464 939.597162 219.247464 850.635303 73.090615 850.635303 73.090615 850.635303 73.090615 441.152326 73.090615 441.152326 73.090615 441.152326 73.090615 352.604924 219.247464 352.604924 219.247464 352.604924 219.247464 113.512309 219.247464 113.512309 219.247464 107.4905 219.881339 73.139374 232.168754 73.139374 256.499786 73.139374 256.499786 73.139374 912.462454 73.139374 912.462454 73.139374 932.86834 95.983239 950.202371 105.320699 950.909385 105.320699 950.909385 1181.176515 950.909385 1181.176515 950.909385 1193.220132 950.056093 1219.038332 928.845674 1219.038332 913.657064 1219.038332 913.657064 1219.038332 257.694396 1219.038332 257.694396ZM646.210752 854.048474C491.374696 854.048474 365.84315 728.541308 365.84315 573.680872 365.84315 418.844817 491.374696 293.313271 646.210752 293.313271 801.046807 293.313271 926.578353 418.844817 926.578353 573.680872 926.578353 728.541308 801.046807 854.048474 646.210752 854.048474ZM646.210752 366.452645C531.772011 366.452645 438.982525 459.242131 438.982525 573.680872 438.982525 688.143993 531.772011 780.9091 646.210752 780.9091 760.649493 780.9091 853.438979 688.143993 853.438979 573.680872 853.438979 459.242131 760.649493 366.452645 646.210752 366.452645Z" p-id="1490" style="fill:white;stroke:#6699FF;stroke-width:6"></path></svg>