<?xml version="1.0" standalone="no"?><!DOCTYPE svg PUBLIC "-//W3C//DTD SVG 1.1//EN" "http://www.w3.org/Graphics/SVG/1.1/DTD/svg11.dtd"><svg class="icon" style="" viewBox="0 0 1024 1024" version="1.1" xmlns="http://www.w3.org/2000/svg" p-id="2491" xmlns:xlink="http://www.w3.org/1999/xlink" width="40" height="40"><defs><style type="text/css"><![CDATA[

]]></style></defs><path d="M488.114489 81.58876c-33.898224 24.355006-62.622414 53.226113-85.993715 85.1812l1.575206-0.619606 201.80136 224.38442-0.182688 1.198332 216.682136 0.168635c0.001278 0.00511 0.002555 0.008943 0.003833 0.014053l0.012775-0.014053 191.872326-214.704505 9.398855-8.818853C899.330065-2.991997 660.006103-41.912227 488.114489 81.58876zM797.728655 342.241238l-50.964869 0 44.570786-129.980665-24.486593-7.462106-49.338562 137.442771-46.410442-138.215682-24.296239 8.061272 35.353341 130.15441L629.725871 342.241238 470.739957 164.337525c14.178129-14.908882 29.927632-28.72419 47.249785-41.169976 137.468322-98.765273 324.699348-77.676935 437.209665 42.866548L797.728655 342.241238zM768.710631 409.596934l-102.398595 0c-28.277051 0-51.199936 22.921607-51.199936 51.199936l-51.199936 511.995529c0 28.277051 22.921607 51.199936 51.199936 51.199936l204.798467 0c28.277051 0 51.199936-22.921607 51.199936-51.199936L819.90929 460.795592C819.90929 432.518541 796.987682 409.596934 768.710631 409.596934zM384.713027 76.799265c0 0-35.475984-76.799265-76.799265-76.799265C266.587925 0 77.515965 96.413324 77.515965 230.397796c0 78.092135 0 230.395241 0 230.395241l307.197062 0L384.713027 76.799265zM333.514368 108.799066l0 300.797868L128.715901 409.596934c0 0 0-127.030827 0-185.598331C141.842616 138.098148 276.920662 51.199936 307.913761 51.199936 338.908138 51.199936 333.514368 108.799066 333.514368 108.799066zM0.716699 972.792399c0 28.277051 22.921607 51.199936 51.199936 51.199936l358.396998 0c28.277051 0 51.199936-22.921607 51.199936-51.199936L461.513569 486.396199 0.716699 486.396199 0.716699 972.792399zM77.515965 601.594459c0-7.071179 5.729763-12.799665 12.799665-12.799665l25.599329 0c7.071179 0 12.799665 5.729763 12.799665 12.799665l0 307.197062c0 7.068624-5.729763 12.799665-12.799665 12.799665L90.31563 921.591185c-7.071179 0-12.799665-5.732318-12.799665-12.799665L77.515965 601.594459zM282.314432 102.398595c0 0 39.874552 47.466967-25.599329 76.799265-65.473881 29.332299-102.398595 25.599329-102.398595 25.599329s100.320039 36.779074 153.598531-51.199936C331.217353 115.116497 282.314432 102.398595 282.314432 102.398595z" p-id="2492" style="fill:white;stroke:#3264fc;stroke-width:6"></path></svg>